<svg xmlns="http://www.w3.org/2000/svg" viewBox="0 0 77.2 77.2"><defs><style>.cls-1{fill:#00e599;}</style></defs><g id="Layer_2" data-name="Layer 2"><g id="Layer_1-2" data-name="Layer 1"><path class="cls-1" d="M74.9,36.9,69.4,36a1.6,1.6,0,0,1-1.2-1.3,26.8,26.8,0,0,0-1.1-4.9,1.4,1.4,0,0,1,.6-1.7l4.6-3.2a2.8,2.8,0,0,0,.7-3.8l-6.1-8.7a2.8,2.8,0,0,0-3.8-.7L58.5,15a1.5,1.5,0,0,1-1.7-.1,38.7,38.7,0,0,0-4.3-2.7,1.5,1.5,0,0,1-.8-1.6l1-5.5a2.7,2.7,0,0,0-2.2-3.2L40.1,0a2.9,2.9,0,0,0-3.2,2.3L36,7.8A1.6,1.6,0,0,1,34.7,9a26.8,26.8,0,0,0-4.9,1.1,1.4,1.4,0,0,1-1.7-.6L24.9,4.9a2.8,2.8,0,0,0-3.8-.7l-8.7,6.1a2.8,2.8,0,0,0-.7,3.8L15,18.7a1.5,1.5,0,0,1-.1,1.7,38.7,38.7,0,0,0-2.7,4.3,1.5,1.5,0,0,1-1.6.8l-5.5-1a2.7,2.7,0,0,0-3.2,2.2L0,37.1a2.7,2.7,0,0,0,2.3,3.1l5.5,1A1.6,1.6,0,0,1,9,42.5a26.8,26.8,0,0,0,1.1,4.9,1.4,1.4,0,0,1-.6,1.7L4.9,52.3a2.8,2.8,0,0,0-.7,3.8l6.1,8.7a2.8,2.8,0,0,0,3.8.7l4.6-3.3a1.5,1.5,0,0,1,1.7.1A38.7,38.7,0,0,0,24.7,65a1.5,1.5,0,0,1,.8,1.6l-1,5.5a2.7,2.7,0,0,0,2.2,3.2l10.4,1.9a2.7,2.7,0,0,0,3.1-2.3l1-5.5a1.6,1.6,0,0,1,1.3-1.2,26.8,26.8,0,0,0,4.9-1.1,1.4,1.4,0,0,1,1.7.6l3.2,4.6a2.8,2.8,0,0,0,3.8.7l8.7-6.1a2.8,2.8,0,0,0,.7-3.8l-3.3-4.6a1.5,1.5,0,0,1,.1-1.7A38.7,38.7,0,0,0,65,52.5a1.5,1.5,0,0,1,1.6-.8l5.5,1a2.7,2.7,0,0,0,3.2-2.2l1.9-10.4A2.9,2.9,0,0,0,74.9,36.9ZM56.2,41.7A17.9,17.9,0,1,1,41.7,21,17.8,17.8,0,0,1,56.2,41.7Z" transform="translate(0 0)"/></g></g></svg>