<svg xmlns="http://www.w3.org/2000/svg" viewBox="0 0 103.8 90.2"><defs><style>.cls-1{fill:#00af92;}.cls-2{fill:#54686d;}.cls-3{fill:#00e599;}</style></defs><g id="Layer_2" data-name="Layer 2"><g id="Layer_1-2" data-name="Layer 1"><path class="cls-1" d="M33.2,54.6l2.5-2.8a2.2,2.2,0,0,0-.1-3.2L34,47.2a.8.8,0,0,1-.2-.8,12.5,12.5,0,0,0,.9-2.5,1.1,1.1,0,0,1,.7-.6h2.1a2.2,2.2,0,0,0,2.1-2.3l-.2-3.8A2.2,2.2,0,0,0,37.1,35H35a.9.9,0,0,1-.8-.5,12.8,12.8,0,0,0-1.1-2.4.8.8,0,0,1,.1-.9l1.4-1.5a2.2,2.2,0,0,0-.2-3.2l-2.8-2.5a2.1,2.1,0,0,0-3.1.1l-1.4,1.6a1,1,0,0,1-.9.2,10.6,10.6,0,0,0-2.5-.9.8.8,0,0,1-.5-.7L23,22.3a2.2,2.2,0,0,0-2.3-2.1l-3.8.2a2.2,2.2,0,0,0-2.1,2.3v2.1a.9.9,0,0,1-.5.8A12.8,12.8,0,0,0,12,26.7a.8.8,0,0,1-.9-.1L9.6,25.2a2.2,2.2,0,0,0-3.2.2L3.9,28.2a2.1,2.1,0,0,0,.2,3.1l1.5,1.4a1,1,0,0,1,.2.9,10.6,10.6,0,0,0-.9,2.5,1.1,1.1,0,0,1-.7.6H2.1A2.2,2.2,0,0,0,0,39.1l.2,3.8A2.2,2.2,0,0,0,2.6,45h2a.8.8,0,0,1,.8.5,25.6,25.6,0,0,0,1.1,2.4.8.8,0,0,1-.1.9L5,50.2a2.3,2.3,0,0,0,.2,3.2L8,55.9a2.2,2.2,0,0,0,3.2-.2l1.4-1.5a.8.8,0,0,1,.8-.2,12.5,12.5,0,0,0,2.5.9,1.1,1.1,0,0,1,.6.7v2.1a2.2,2.2,0,0,0,2.3,2.1l3.8-.2a2.2,2.2,0,0,0,2.1-2.3V55.2a.8.8,0,0,1,.5-.8l2.4-1.1a.8.8,0,0,1,.9.1L30,54.8A2.3,2.3,0,0,0,33.2,54.6ZM15.7,46.5A7.8,7.8,0,0,1,15,33.9a7.7,7.7,0,0,1,8.9-.4,7.8,7.8,0,0,1,.7,12.6A7.7,7.7,0,0,1,15.7,46.5Z"/><path class="cls-2" d="M55.8,85.6,58.6,82a1.2,1.2,0,0,0-.2-1.7l-1.9-1.5a.8.8,0,0,1-.2-.8,7.3,7.3,0,0,0,.6-2.1c.1-.2.3-.5.6-.5l2.4-.3A1.2,1.2,0,0,0,61,73.8l-.6-4.6a1.1,1.1,0,0,0-1.3-1l-2.4.3a.8.8,0,0,1-.7-.4,7.2,7.2,0,0,0-1.1-1.9.8.8,0,0,1,.1-.8l1.5-1.9a1.2,1.2,0,0,0-.2-1.7l-3.6-2.9a1.2,1.2,0,0,0-1.7.2l-1.5,2a.7.7,0,0,1-.7.2l-2.2-.7c-.2,0-.4-.2-.5-.5l-.3-2.5a1.1,1.1,0,0,0-1.3-1l-4.5.5a1.2,1.2,0,0,0-1.1,1.3l.3,2.5a.5.5,0,0,1-.4.6,11.8,11.8,0,0,0-1.9,1.1.6.6,0,0,1-.8,0l-1.9-1.5a1.2,1.2,0,0,0-1.7.1l-2.8,3.6a1.1,1.1,0,0,0,.1,1.7l2,1.6a.6.6,0,0,1,.2.7,8.3,8.3,0,0,0-.6,2.1.6.6,0,0,1-.6.5l-2.4.3A1.2,1.2,0,0,0,27.3,73l.5,4.6a1.2,1.2,0,0,0,1.4,1l2.4-.2c.3-.1.5.1.7.3a12.4,12.4,0,0,0,1,2,.5.5,0,0,1,0,.7l-1.5,2A1.1,1.1,0,0,0,32,85l3.6,2.9a1.1,1.1,0,0,0,1.6-.2l1.6-1.9a.6.6,0,0,1,.7-.2l2.1.6a.5.5,0,0,1,.5.5l.3,2.5a1.2,1.2,0,0,0,1.3,1l4.6-.5a1.2,1.2,0,0,0,1.1-1.3l-.3-2.5a.6.6,0,0,1,.4-.6l1.9-1.1a.9.9,0,0,1,.7,0l2,1.6A1.3,1.3,0,0,0,55.8,85.6ZM41.2,77.1a4.7,4.7,0,0,1-.8-6.6,4.7,4.7,0,1,1,7.4,5.9A4.6,4.6,0,0,1,41.2,77.1Z"/><path class="cls-3" d="M102,30.2l-4.6-.8a1.1,1.1,0,0,1-.9-1,30.1,30.1,0,0,0-.9-4.1A1.1,1.1,0,0,1,96,23l3.8-2.6a2.4,2.4,0,0,0,.6-3.2l-5-7a2.2,2.2,0,0,0-3.1-.6l-3.8,2.6a1.2,1.2,0,0,1-1.4,0A20.7,20.7,0,0,0,83.6,10,1.4,1.4,0,0,1,83,8.7l.8-4.6A2.2,2.2,0,0,0,82,1.6L73.5,0a2.3,2.3,0,0,0-2.6,1.8l-.8,4.6a1.3,1.3,0,0,1-1.1,1,19.2,19.2,0,0,0-4,.9,1.3,1.3,0,0,1-1.3-.5L61,4a2.2,2.2,0,0,0-3.1-.5L50.8,8.4a2.2,2.2,0,0,0-.5,3.1l2.6,3.8a1.2,1.2,0,0,1,0,1.4,26.4,26.4,0,0,0-2.3,3.5,1,1,0,0,1-1.2.6L44.8,20a2.3,2.3,0,0,0-2.6,1.8l-1.5,8.5a2.2,2.2,0,0,0,1.8,2.6l4.6.8a1.2,1.2,0,0,1,.9,1.1,25.9,25.9,0,0,0,.9,4,1.2,1.2,0,0,1-.4,1.4l-3.8,2.6a2.2,2.2,0,0,0-.6,3.1l5,7.1a2.2,2.2,0,0,0,3.1.6L56,50.9a1.2,1.2,0,0,1,1.4.1,20.7,20.7,0,0,0,3.5,2.2,1.3,1.3,0,0,1,.6,1.3L60.7,59a2.3,2.3,0,0,0,1.8,2.6L71,63.1a2.2,2.2,0,0,0,2.6-1.8l.8-4.5a1.3,1.3,0,0,1,1-1,27.1,27.1,0,0,0,4.1-.9,1.1,1.1,0,0,1,1.3.5l2.7,3.8a2.2,2.2,0,0,0,3.1.5l7.1-4.9a2.2,2.2,0,0,0,.5-3.1l-2.6-3.8a1.4,1.4,0,0,1,0-1.5A20.3,20.3,0,0,0,93.9,43a1.1,1.1,0,0,1,1.2-.7l4.6.8a2.2,2.2,0,0,0,2.6-1.8l1.5-8.5A2.3,2.3,0,0,0,102,30.2Zm-15.3,4a14.7,14.7,0,1,1-11.9-17A14.8,14.8,0,0,1,86.7,34.2Z"/></g></g></svg>