<svg xmlns="http://www.w3.org/2000/svg" viewBox="0 0 74.9 83.9"><defs><style>.cls-1{fill:#00e599;}.cls-2{fill:#00af92;}.cls-3{fill:#54686d;}.cls-4{fill:#242424;}</style></defs><g id="Layer_2" data-name="Layer 2"><g id="Layer_1-2" data-name="Layer 1"><path class="cls-1" d="M0,25.2V58.7A8.4,8.4,0,0,0,4.2,66L33.3,82.8a8.4,8.4,0,0,0,8.4,0L70.7,66a8.4,8.4,0,0,0,4.2-7.3V25.2a8.4,8.4,0,0,0-4.2-7.3L41.7,1.1a8.4,8.4,0,0,0-8.4,0L4.2,17.9A8.4,8.4,0,0,0,0,25.2Z"/><path class="cls-2" d="M26.8,25,10.6,53.1A3.9,3.9,0,0,0,12,58.3l15.9,9.1A3.8,3.8,0,0,0,33.2,66L49.3,38c-.7-4.8-2.8-16.3-2.8-16.3a3.1,3.1,0,0,0-4.2-2.4S31.3,23.2,26.8,25ZM35,28.8a4,4,0,1,1,6.9,4,4,4,0,1,1-6.9-4Z"/><path class="cls-3" d="M41.5,18.9a3.1,3.1,0,0,0-4.8,0s-7.6,8.9-10.6,12.7V64a3.8,3.8,0,0,0,3.8,3.8H48.2A3.8,3.8,0,0,0,52.1,64V31.6C49.1,27.8,41.5,18.9,41.5,18.9ZM39.1,34.8a4,4,0,1,1,4-4A4,4,0,0,1,39.1,34.8Z"/><path class="cls-4" d="M35.1,19.3A3,3,0,0,0,31,21.7S28.8,33.2,28.1,38L44.3,66a3.7,3.7,0,0,0,5.2,1.4l15.9-9.1a3.8,3.8,0,0,0,1.4-5.2L50.7,25C46.1,23.2,35.1,19.3,35.1,19.3Zm5.9,15a4,4,0,0,1-4-7,4,4,0,0,1,5.4,1.5A4,4,0,0,1,41,34.3Z"/></g></g></svg>