<svg xmlns="http://www.w3.org/2000/svg" viewBox="0 0 78 56.5"><defs><style>.cls-1{fill:#00e599;}.cls-2{fill:#00af92;}</style></defs><g id="Layer_2" data-name="Layer 2"><g id="Layer_1-2" data-name="Layer 1"><ellipse class="cls-1" cx="22.5" cy="5.2" rx="21" ry="5.2"/><path class="cls-1" d="M0,7.3S-.7,13,22.5,13,44.9,8.2,44.9,8.2V18.7s.7,4.9-22.4,4.9S0,17.9,0,17.9Z"/><ellipse class="cls-2" cx="55.5" cy="24.2" rx="21" ry="5.2"/><path class="cls-2" d="M33.1,26.3S32.4,32,55.5,32,78,27.1,78,27.1V37.7s.7,4.8-22.5,4.8-22.4-5.6-22.4-5.6Z"/><path class="cls-2" d="M33.1,40.3S32.4,46,55.5,46,78,41.1,78,41.1V51.7s.7,4.8-22.5,4.8-22.4-5.7-22.4-5.7Z"/><path class="cls-1" d="M22.5,27C1.2,27,0,22.2,0,21.4V31.9s-.7,5.6,22.5,5.6a104.2,104.2,0,0,0,10.6-.4V26.6C30.3,26.8,26.8,27,22.5,27Z"/><path class="cls-1" d="M0,21.4H0Z"/><path class="cls-1" d="M44.9,22.1h0Z"/><path class="cls-1" d="M22.5,41C1.2,41,0,36.2,0,35.4V45.8s-.7,5.7,22.5,5.7c4.3,0,7.8-.2,10.6-.4V40.5A100.3,100.3,0,0,1,22.5,41Z"/><path class="cls-1" d="M0,35.4H0Z"/><path class="cls-1" d="M44.9,36.1h0Z"/></g></g></svg>