<svg xmlns="http://www.w3.org/2000/svg" viewBox="0 0 83.8 87.7"><defs><style>.cls-1{fill:#00af92;}.cls-2{fill:#00e599;}.cls-3{fill:#fff;}</style></defs><g id="Layer_2" data-name="Layer 2"><g id="Layer_1-2" data-name="Layer 1"><circle class="cls-1" cx="21.8" cy="21.8" r="21.7"/><circle class="cls-1" cx="56.8" cy="60.7" r="27"/><circle class="cls-2" cx="21.8" cy="21.8" r="19"/><circle class="cls-2" cx="56.8" cy="60.7" r="24"/><polygon class="cls-3" points="12.4 18.3 16.2 29.3 24.3 29.4 20.4 18.3 27.1 12.7 19.2 12.7 12.4 18.3"/><polygon class="cls-3" points="21.1 18.4 23.2 24.4 31.2 24.4 27.3 13.2 21.1 18.4"/><polygon class="cls-3" points="49.1 50.8 44.7 65 52.9 71.3 57.4 56.9 68.5 56.4 60.5 50.3 49.1 50.8"/><polygon class="cls-3" points="58 57.6 55.5 65.3 63.7 71.6 68.3 57 58 57.6"/></g></g></svg>